<svg width="174" height="66" viewBox="0 0 174 66" fill="none" xmlns="http://www.w3.org/2000/svg">
<path fill-rule="evenodd" clip-rule="evenodd" d="M26.2872 19.8223L27.5419 20.0312C29.1417 20.2975 27.8184 32.3233 28.5875 38.4119C29.6723 47.0007 33.6062 63.8942 33.6062 63.8942C33.6347 65.5139 32.3005 65.5652 30.6786 65.5652H26.0781C24.4562 65.5652 22.9477 65.2926 23.1505 63.6853C23.1505 63.6853 19.962 46.407 20.8503 37.7852C21.4914 31.5628 24.6874 19.556 26.2872 19.8223Z" fill="#184655"/>
<path d="M26.175 26.3427C30.5217 26.7144 34.8683 27.086 38.644 25.4956C42.4196 23.9051 45.624 20.3529 48.8284 16.8005C43.769 16.6557 38.7094 16.5108 35.2343 17.681C31.7592 18.8511 29.8682 21.3363 27.9773 23.8215L26.175 26.3427Z" fill="#3C8F7C"/>
<path d="M26.4356 26.4052C20.0998 24.4411 13.7641 22.4772 9.35807 18.0762C4.95202 13.6751 2.47606 6.8377 0 0C7.20971 2.69143 14.4195 5.3829 18.6433 9.01992C22.8671 12.657 24.1052 17.2397 25.3432 21.8225L26.4356 26.4052Z" fill="#3C8F7C"/>
<path d="M48.5427 39.2314H53.7988V65.0933H48.5427V39.2314ZM41.2112 36.9261H61.1109V41.9823H41.2112V36.9261Z" fill="#1A3E36"/>
<path d="M73.0896 36.9261H76.4644L86.7633 65.0933H81.1581L74.777 45.9536L68.396 65.0933H62.7907L73.0896 36.9261ZM67.8917 55.5622H81.8757V60.599H67.8917V55.5622Z" fill="#1A3E36"/>
<path d="M93.059 36.9261H99.2461L109.274 58.1775L108.789 58.7005V36.9261H113.793V65.074H107.586L97.5975 44.2488L98.063 43.7064V65.074H93.059V36.9261Z" fill="#1A3E36"/>
<path d="M130.019 36.9261H133.394L143.693 65.0933H138.087L131.706 45.9536L125.325 65.0933H119.72L130.019 36.9261ZM124.821 55.5622H138.805V60.599H124.821V55.5622Z" fill="#1A3E36"/>
<path d="M167.309 36.9261H174V65.0933H169.248V43.4933L169.442 44.7332L164.205 61.7419H159.783L154.566 45.1206L154.779 43.4933V65.0933H149.988V36.9261H156.719L161.994 55.4653L167.309 36.9261Z" fill="#1A3E36"/>
</svg>
